# File created by Blade
# Date/Time:  Fri Jan 16 19:41:12 2015
# Frame Rate: 120.000 fps
#------------------------------------------------------
:FULLY-SPECIFIED
:DEGREES
765
root 18.659852 35.480297 -21.103850 10.205674 5.093206 -0.318407
Spine -27.388403 -4.209203 2.522270
Head 27.785597 -1.380399 -5.838436
LeftShoulder -29.544980 -50.974235 53.734152
LeftArm 67.649892 -35.293140 -27.956287
LeftForeArm -26.365443 -0.000000 151.407318
LeftHand 4.323056 -0.000000 13.783351
LeftHandThumb1 -26.253704 0.000000 33.147579
RightShoulder -0.543879 -40.562842 -7.381055
RightArm -14.732539 -63.651921 90.860792
RightForeArm -16.604859 0.000000 128.716019
RightHand 6.393488 0.000000 42.532263
RightHandThumb1 -24.326973 -0.000000 -32.862282
LeftUpLeg 0.166792 2.866981 0.996926
LeftLeg -6.491897 -0.000000 0.000000
LeftFoot -21.755240 27.834476 -15.524307
LeftToeBase 23.909549 -0.000000 -0.000000
RightUpLeg 0.492548 -10.968894 -1.328419
RightLeg -3.575335 -0.000000 0.000000
RightFoot -23.752202 -23.258909 21.241947
RightToeBase 22.552659 -0.000000 -0.000000
766
root 18.655441 35.480492 -21.102210 10.265499 5.037886 -0.328377
Spine -27.489573 -4.194842 2.556051
Head 27.967684 -1.372051 -5.724090
LeftShoulder -29.186705 -51.306611 53.600420
LeftArm 67.984170 -35.228562 -27.963992
LeftForeArm -26.997109 -0.000000 151.189645
LeftHand 4.355207 -0.000000 13.022008
LeftHandThumb1 -26.253704 0.000000 33.147579
RightShoulder -0.586461 -40.502194 -7.337378
RightArm -14.491671 -63.694984 90.619953
RightForeArm -14.976179 -0.000000 128.484149
RightHand 6.278043 -0.000000 42.629106
RightHandThumb1 -24.326973 -0.000000 -32.862282
LeftUpLeg 0.126920 2.902769 1.004679
LeftLeg -6.512267 -0.000000 0.000000
LeftFoot -21.759443 27.845335 -15.526980
LeftToeBase 23.975207 -0.000000 -0.000000
RightUpLeg 0.430343 -10.968450 -1.309326
RightLeg -3.586170 -0.000000 0.000000
RightFoot -23.734867 -23.199422 21.246899
RightToeBase 22.561295 -0.000000 -0.000000
767
root 18.650364 35.482268 -21.101890 10.319181 4.982458 -0.352182
Spine -27.592749 -4.180482 2.593814
Head 28.170237 -1.384116 -5.576857
LeftShoulder -28.944965 -51.447544 53.519386
LeftArm 68.393853 -35.097913 -28.044763
LeftForeArm -27.401631 -0.000000 151.020648
LeftHand 4.294655 -0.000000 12.597199
LeftHandThumb1 -26.253704 0.000000 33.147579
RightShoulder -0.562179 -40.429438 -7.299394
RightArm -14.402986 -63.815733 90.556703
RightForeArm -13.840758 -0.000000 128.194495
RightHand 6.202608 -0.000000 42.463377
RightHandThumb1 -24.326973 -0.000000 -32.862282
LeftUpLeg 0.087100 2.928625 1.028234
LeftLeg -6.527287 -0.000000 0.000000
LeftFoot -21.744852 27.862205 -15.539184
LeftToeBase 23.939809 -0.000000 -0.000000
RightUpLeg 0.369214 -10.966672 -1.273156
RightLeg -3.597763 -0.000000 0.000000
RightFoot -23.692592 -23.157469 21.249432
RightToeBase 22.576273 -0.000000 -0.000000
768
root 18.646527 35.484025 -21.101705 10.375631 4.921079 -0.376123
Spine -27.683349 -4.144427 2.651357
Head 28.332117 -1.394126 -5.535426
LeftShoulder -28.809542 -51.714261 53.599643
LeftArm 68.633853 -34.881948 -28.208014
LeftForeArm -27.356282 -0.000000 150.881919
LeftHand 4.316883 -0.000000 12.006918
LeftHandThumb1 -26.253704 0.000000 33.147579
RightShoulder -0.526058 -40.339161 -7.288583
RightArm -14.401438 -63.987899 90.652906
RightForeArm -13.378868 0.000000 127.911591
RightHand 6.106323 -0.000000 42.389350
RightHandThumb1 -24.326973 -0.000000 -32.862282
LeftUpLeg 0.043958 2.967561 1.046271
LeftLeg -6.541338 -0.000000 0.000000
LeftFoot -21.738696 27.882931 -15.564037
LeftToeBase 23.890729 -0.000000 -0.000000
RightUpLeg 0.306313 -10.963250 -1.239834
RightLeg -3.615563 -0.000000 0.000000
RightFoot -23.656435 -23.107680 21.271451
RightToeBase 22.583019 -0.000000 -0.000000
769
root 18.641052 35.486022 -21.101052 10.425175 4.853005 -0.399475
Spine -27.771313 -4.108058 2.685542
Head 28.521138 -1.403234 -5.449289
LeftShoulder -28.769209 -51.953624 53.766606
LeftArm 68.855016 -34.611638 -28.331679
LeftForeArm -27.077284 -0.000000 150.778965
LeftHand 4.233421 -0.000000 11.733960
LeftHandThumb1 -26.253704 0.000000 33.147579
RightShoulder -0.462234 -40.267652 -7.241060
RightArm -14.366769 -64.094655 90.740882
RightForeArm -13.325714 -0.000000 127.761910
RightHand 6.213000 0.000000 42.442713
RightHandThumb1 -24.326973 -0.000000 -32.862282
LeftUpLeg 0.012768 3.014444 1.065021
LeftLeg -6.561808 -0.000000 0.000000
LeftFoot -21.751374 27.935300 -15.612772
LeftToeBase 23.851264 -0.000000 -0.000000
RightUpLeg 0.244400 -10.962775 -1.208425
RightLeg -3.617040 -0.000000 0.000000
RightFoot -23.612732 -23.032954 21.289461
RightToeBase 22.568809 -0.000000 -0.000000
770
root 18.635458 35.487903 -21.100374 10.490455 4.773528 -0.426622
Spine -27.873887 -4.075414 2.723991
Head 28.668148 -1.401094 -5.368426
LeftShoulder -28.712824 -52.103061 53.929835
LeftArm 69.104844 -34.423015 -28.580269
LeftForeArm -26.848946 -0.000000 150.686783
LeftHand 4.179820 -0.000000 11.551637
LeftHandThumb1 -26.253704 0.000000 33.147579
RightShoulder -0.412580 -40.149593 -7.164683
RightArm -14.399570 -64.139444 90.868689
RightForeArm -13.259518 -0.000000 127.724251
RightHand 6.197130 0.000000 42.475075
RightHandThumb1 -24.326973 -0.000000 -32.862282
LeftUpLeg -0.028582 3.083952 1.086034
LeftLeg -6.587376 -0.000000 0.000000
LeftFoot -21.727924 27.899409 -15.602982
LeftToeBase 23.894513 -0.000000 -0.000000
RightUpLeg 0.175033 -10.955433 -1.170025
RightLeg -3.639718 -0.000000 0.000000
RightFoot -23.539331 -22.968687 21.270198
RightToeBase 22.536286 -0.000000 -0.000000
771
root 18.629917 35.489895 -21.100429 10.544033 4.702954 -0.456486
Spine -27.958845 -4.050288 2.768095
Head 28.822403 -1.373793 -5.227216
LeftShoulder -28.675484 -52.304860 54.099628
LeftArm 69.374586 -34.263620 -28.886818
LeftForeArm -26.676437 -0.000000 150.535573
LeftHand 4.221997 -0.000000 11.281742
LeftHandThumb1 -26.253704 0.000000 33.147579
RightShoulder -0.374465 -40.001783 -7.042589
RightArm -14.345844 -63.989705 90.860438
RightForeArm -13.097913 -0.000000 127.815338
RightHand 6.240327 -0.000000 42.788332
RightHandThumb1 -24.326973 -0.000000 -32.862282
LeftUpLeg -0.071330 3.149530 1.108851
LeftLeg -6.596070 -0.000000 0.000000
LeftFoot -21.732900 27.900735 -15.625930
LeftToeBase 23.887710 -0.000000 -0.000000
RightUpLeg 0.110715 -10.956785 -1.130035
RightLeg -3.653275 -0.000000 0.000000
RightFoot -23.485356 -22.908560 21.272177
RightToeBase 22.525976 -0.000000 -0.000000
772
root 18.623237 35.491734 -21.100585 10.602354 4.634049 -0.484782
Spine -28.048419 -3.984285 2.792027
Head 28.978895 -1.401915 -5.107978
LeftShoulder -28.661646 -52.595141 54.307246
LeftArm 69.643622 -34.061452 -29.272631
LeftForeArm -26.686690 -0.000000 150.392188
LeftHand 4.215781 -0.000000 10.864865
LeftHandThumb1 -26.253704 0.000000 33.147579
RightShoulder -0.424215 -39.905269 -6.901448
RightArm -14.097521 -63.904562 90.724111
RightForeArm -12.739202 -0.000000 127.851392
RightHand 6.085676 -0.000000 43.080512
RightHandThumb1 -24.326973 -0.000000 -32.862282
LeftUpLeg -0.118976 3.203355 1.132110
LeftLeg -6.604504 -0.000000 0.000000
LeftFoot -21.725952 27.914782 -15.641656
LeftToeBase 23.853717 -0.000000 -0.000000
RightUpLeg 0.043116 -10.947488 -1.086618
RightLeg -3.670010 -0.000000 0.000000
RightFoot -23.460609 -22.854711 21.317966
RightToeBase 22.539909 -0.000000 -0.000000
773
root 18.618135 35.493489 -21.100520 10.643297 4.562910 -0.508930
Spine -28.123991 -3.905001 2.805901
Head 29.151736 -1.417945 -4.979158
LeftShoulder -28.597729 -52.892533 54.448301
LeftArm 69.927971 -33.897128 -29.666153
LeftForeArm -26.667876 -0.000000 150.245021
LeftHand 4.050343 -0.000000 10.219346
LeftHandThumb1 -26.253704 0.000000 33.147579
RightShoulder -0.481458 -39.756231 -6.767068
RightArm -13.831968 -63.928999 90.651485
RightForeArm -12.196146 -0.000000 127.745547
RightHand 5.698109 -0.000000 43.219494
RightHandThumb1 -24.326973 -0.000000 -32.862282
LeftUpLeg -0.148831 3.265984 1.147125
LeftLeg -6.612771 -0.000000 0.000000
LeftFoot -21.727538 27.933702 -15.654237
LeftToeBase 23.885195 -0.000000 -0.000000
RightUpLeg -0.002481 -10.922513 -1.059285
RightLeg -3.684647 -0.000000 0.000000
RightFoot -23.410326 -22.796230 21.319402
RightToeBase 22.541601 -0.000000 -0.000000
774
root 18.612262 35.495033 -21.101216 10.681846 4.501948 -0.545127
Spine -28.206506 -3.793037 2.845211
Head 29.317148 -1.343301 -4.834326
LeftShoulder -28.489825 -53.256735 54.516907
LeftArm 70.167023 -33.736414 -29.992946
LeftForeArm -26.519770 -0.000000 150.156729
LeftHand 3.809570 -0.000000 9.883304
LeftHandThumb1 -26.253704 0.000000 33.147579
RightShoulder -0.534700 -39.602044 -6.631890
RightArm -13.637812 -63.895461 90.654203
RightForeArm -11.692931 0.000000 127.621306
RightHand 5.443127 -0.000000 43.234690
RightHandThumb1 -24.326973 -0.000000 -32.862282
LeftUpLeg -0.176577 3.304312 1.176557
LeftLeg -6.627802 -0.000000 0.000000
LeftFoot -21.751839 27.975166 -15.683551
LeftToeBase 23.866434 -0.000000 -0.000000
RightUpLeg -0.048422 -10.910681 -1.013217
RightLeg -3.703268 -0.000000 0.000000
RightFoot -23.381572 -22.696658 21.365367
RightToeBase 22.659449 -0.000000 -0.000000
775
root 18.607206 35.496387 -21.100851 10.715043 4.438809 -0.572505
Spine -28.269863 -3.659784 2.849155
Head 29.485715 -1.392080 -4.721866
LeftShoulder -28.504542 -53.689187 54.722977
LeftArm 70.337256 -33.507020 -30.327088
LeftForeArm -26.266586 0.000000 150.079924
LeftHand 3.660090 0.000000 9.511186
LeftHandThumb1 -26.253704 0.000000 33.147579
RightShoulder -0.632251 -39.471106 -6.450805
RightArm -13.382985 -63.933366 90.567922
RightForeArm -11.002000 -0.000000 127.468524
RightHand 5.633260 -0.000000 43.671148
RightHandThumb1 -24.326973 -0.000000 -32.862282
LeftUpLeg -0.196598 3.348812 1.196018
LeftLeg -6.640542 -0.000000 0.000000
LeftFoot -21.759562 28.001822 -15.687527
LeftToeBase 23.845838 -0.000000 -0.000000
RightUpLeg -0.080855 -10.904165 -0.979805
RightLeg -3.731947 -0.000000 0.000000
RightFoot -23.334153 -22.666001 21.336221
RightToeBase 22.756329 -0.000000 -0.000000
